# xmcd
#
# Track frame offsets:
#	150
#	15114
#	27906
#	46497
#	59481
#	80082
#	94868
#	111873
#	127516
#	143331
#	156760
#	172739
#
# Disc length: 2584 seconds
#
# Revision: 0
# Processed by: cddbd v1.5.2PL0 Copyright (c) Steve Scherf et al.
# Submitted via: audiograbber 1.83.01
#
DISCID=850a160c
DTITLE=Various Artist - EMI Music Sampler 2005
DYEAR=2005
DGENRE=Country
TTITLE0=John Williamson - Chandelier Of Stars
TTITLE1=Paul Kelly and The Stormwater Boys - Song Of The Old Rake
TTITLE2=Kasey Chambers - Bluebird
TTITLE3=Troy Cassar-Daley - River Boy
TTITLE4=Dierks Bently - Lot Of Leavin'
TTITLE5=Slim Dusty - Answer To Billy
TTITLE6=Keith Urban - Days Go By
TTITLE7=Trace Adkins - Songs About Me
TTITLE8=Jamie O'Neal - Trying To Find Atlantis
TTITLE9=Shelby Lynne - Go With It
TTITLE10=Merle Haggard - What Love Can Do
TTITLE11=The Highwaymen - The Road Goes On Forever
EXTD=
EXTT0=
EXTT1=
EXTT2=
EXTT3=
EXTT4=
EXTT5=
EXTT6=
EXTT7=
EXTT8=
EXTT9=
EXTT10=
EXTT11=
PLAYORDER=
